  0
SECTION
  2
HEADER
  9
$ACADVER
  1
AC1009
  9
$INSBASE
 10
0.0
 20
0.0
 30
0.0
  9
$EXTMIN
 10
-181.000000500026
 20
-5.00047292961714e-07
 30
0.0
  9
$EXTMAX
 10
181.000000500082
 20
169.999985499928
 30
0.0
  9
$LIMMIN
 10
0.0
 20
0.0
  9
$LIMMAX
 10
12.0000
 20
 9.0000
9
$ORTHOMODE
70
0
9
$REGENMODE
70
1
9
$FILLMODE
70
1
9
$QTEXTMODE
70
0
9
$MIRRTEXT
70
1
9
$DRAGMODE
70
2
9
$LTSCALE
40
1.0
9
$OSMODE
70
0
9
$ATTMODE
70
1
9
$TEXTSIZE
40
0.2
9
$TRACEWID
40
0.05
9
$TEXTSTYLE
7
STANDARD
9
$CLAYER
8
0
9
$CELTYPE
6
BYLAYER
9
$CECOLOR
62
256
9
$DIMSCALE
40
1.0
9
$DIMASZ
40
0.18
9
$DIMEXO
40
0.0625
9
$DIMDLI
40
0.38
9
$DIMRND
40
0.0
9
$DIMDLE
40
0.0
9
$DIMEXE
40
0.18
9
$DIMTP
40
0.0
9
$DIMTM
40
0.0
9
$DIMTXT
40
0.18
9
$DIMCEN
40
0.09
9
$DIMTSZ
40
0.0
9
$DIMTOL
70
0
9
$DIMLIM
70
0
9
$DIMTIH
70
1
9
$DIMTOH
70
1
9
$DIMSE1
70
0
9
$DIMSE2
70
0
9
$DIMTAD
70
0
9
$DIMZIN
70
0
9
$DIMBLK
1

9
$DIMASO
70
1
9
$DIMSHO
70
1
9
$DIMPOST
1

9
$DIMAPOST
1

9
$DIMALT
70
0
9
$DIMALTD
70
2
9
$DIMALTF
40
25.4
9
$DIMLFAC
40
1.0
9
$DIMTOFL
70
0
9
$DIMTVP
40
0.0
9
$DIMTIX
70
0
9
$DIMSOXD
70
0
9
$DIMSAH
70
0
9
$DIMBLK1
1

9
$DIMBLK2
1

9
$DIMSTYLE
2
*UNNAMED
9
$DIMCLRD
70
0
9
$DIMCLRE
70
0
9
$DIMCLRT
70
0
9
$DIMTFAC
40
1.0
9
$DIMGAP
40
0.09
9
$LUNITS
70
2
9
$LUPREC
70
4
9
$SKETCHINC
40
0.1
9
$FILLETRAD
40
0.0
9
$AUNITS
70
0
9
$AUPREC
70
0
9
$MENU
1
acad
9
$ELEVATION
40
0.0
9
$PELEVATION
40
0.0
9
$THICKNESS
40
0.0
9
$LIMCHECK
70
0
9
$BLIPMODE
70
1
9
$CHAMFERA
40
0.0
9
$CHAMFERB
40
0.0
9
$SKPOLY
70
0
9
$TDCREATE
40
2449214.701881018
9
$TDUPDATE
40
2449214.701881018
9
$TDINDWG
40
0.0000000000
9
$TDUSRTIMER
40
0.0000000000
9
$USRTIMER
70
1
9
$ANGBASE
50
0.0
9
$ANGDIR
70
0
9
$PDMODE
70
0
9
$PDSIZE
40
0.0
9
$PLINEWID
40
0.0
9
$COORDS
70
1
9
$SPLFRAME
70
0
9
$SPLINETYPE
70
6
9
$SPLINESEGS
70
8
9
$ATTDIA
70
0
9
$ATTREQ
70
1
9
$HANDLING
70
0
9
$HANDSEED
5
0
9
$SURFTAB1
70
6
9
$SURFTAB2
70
6
9
$SURFTYPE
70
6
9
$SURFU
70
6
9
$SURFV
70
6
9
$UCSNAME
2

9
$UCSORG
10
0.0
20
0.0
30
0.0
9
$UCSXDIR
10
1.0
20
0.0
30
0.0
9
$UCSYDIR
10
0.0
20
1.0
30
0.0
9
$PUCSNAME
2

9
$PUCSORG
10
0.0
20
0.0
30
0.0
9
$PUCSXDIR
10
1.0
20
0.0
30
0.0
9
$PUCSYDIR
10
0.0
20
1.0
30
0.0
9
$USERI1
70
0
9
$USERI2
70
0
9
$USERI3
70
0
9
$USERI4
70
0
9
$USERI5
70
0
9
$USERR1
40
0.0
9
$USERR2
40
0.0
9
$USERR3
40
0.0
9
$USERR4
40
0.0
9
$USERR5
40
0.0
9
$WORLDVIEW
70
1
9
$SHADEDGE
70
3
9
$SHADEDIF
70
70
9
$TILEMODE
70
1
9
$MAXACTVP
70
16
9
$PINSBASE
10
0.0
20
0.0
30
0.0
9
$PLIMCHECK
70
0
  9
$PEXTMIN
 10
1.0000000000000000E+020
 20
1.0000000000000000E+020
 30
1.0000000000000000E+020
  9
$PEXTMAX
 10
-1.0000000000000000E+020
 20
-1.0000000000000000E+020
 30
-1.0000000000000000E+020
  9
$PLIMMIN
 10
-181.000000500026
 20
-5.00047292961714e-07
  9
$PLIMMAX
 10
12.0000
 20
 9.0000
  9
$UNITMODE
 70
0
  9
$VISRETAIN
 70
1
  9
$PLINEGEN
 70
0
  9
$PSLTSCALE
 70
1
  0
ENDSEC
  0
SECTION
  2
TABLES
  0
TABLE
  2
VPORT
 70
3
  0
VPORT
  2
*ACTIVE
 70
0
 10
0.0
 20
0.0
 11
1.0
 21
1.0
 12
2.80095946436631e-11
 22
84.9999924999404
 13
0.0
 23
0.0
 14
1.0
 24
1.0
 15
1.0
 25
1.0
 16
0.0
 26
0.0
 36
1.0
 17
0.0
 27
0.0
 37
0.0
 40
169.999985999975
 41
2.12941194595252
 42
50.0
 43
0.0
 44
0.0
 50
0.0
 51
0.0
 71
0
 72
100
 73
1
 74
3
 75
0
 76
0
 77
0
 78
0
  0
ENDTAB
0
TABLE
2
LTYPE
70
1
0
LTYPE
2
CONTINUOUS
70
64
3
Solid line
72
65
73
0
40
0.0
0
ENDTAB
  0
TABLE
  2
LAYER
 70
2
  0
LAYER
  2
Slice
 70
0
 62
7
  6
CONTINUOUS
  0
ENDTAB
0
TABLE
2
STYLE
70
1
0
STYLE
2
STANDARD
70
64
40
0.0
41
1.0
50
0.0
71
0
42
0.2
3
txt
4

0
ENDTAB
0
TABLE
2
VIEW
70
0
0
ENDTAB
0
TABLE
2
UCS
70
0
0
ENDTAB
0
TABLE
2
APPID
70
1
0
APPID
2
ACAD
70
64
0
ENDTAB
0
TABLE
2
DIMSTYLE
70
0
0
ENDTAB
0
ENDSEC
0
SECTION
2
BLOCKS
0
ENDSEC
  0
SECTION
  2
ENTITIES
  0
LINE
  5
0
  8
Slice
 10
-181.000000500026
 20
0.499999499952715
 30
0
 11
-181.000000500026
 21
17.5199839999734
 31
0
  0
ARC
  5
0
  8
Slice
 10
-180.500000500026
 20
17.5199839999734
 30
0
 40
0.5
 50
90
 51
180
  0
LINE
  5
0
  8
Slice
 10
-180.500000500026
 20
18.0199839999734
 30
0
 11
-178.464102115153
 21
18.0199839999734
 31
0
  0
ARC
  5
0
  8
Slice
 10
-178.464102115153
 20
17.5199839999734
 30
0
 40
0.500000000000632
 50
8.21321070173119
 51
90
  0
ARC
  5
0
  8
Slice
 10
-175.000000500015
 20
18.0199839999734
 30
0
 40
2.99999999999966
 50
-171.786789298261
 51
0
  0
LINE
  5
0
  8
Slice
 10
-172.000000500015
 20
18.0199839999734
 30
0
 11
-172.000000500016
 21
151.999984999985
 31
0
  0
ARC
  5
0
  8
Slice
 10
-157.000000500007
 20
151.999984999986
 30
0
 40
15.000000000009
 50
89.9999999999961
 51
180.000000000004
  0
LINE
  5
0
  8
Slice
 10
-157.000000500006
 20
166.999984999995
 30
0
 11
-150.207107278221
 21
166.999985138607
 31
0
  0
ARC
  5
0
  8
Slice
 10
-150.207107288424
 20
167.499985138607
 30
0
 40
0.5
 50
-89.9999988308196
 51
-44.9999994154585
  0
LINE
  5
0
  8
Slice
 10
-149.853553894224
 20
167.146431751621
 30
0
 11
-147.14644681417
 21
169.853538886914
 31
0
  0
ARC
  5
0
  8
Slice
 10
-146.792893419969
 20
169.499985499928
 30
0
 40
0.5
 50
90
 51
135.00000058462
  0
LINE
  5
0
  8
Slice
 10
-146.792893419969
 20
169.999985499928
 30
0
 11
-132.000000500023
 21
169.999985499928
 31
0
  0
ARC
  5
0
  8
Slice
 10
-132.000000500023
 20
169.499985499928
 30
0
 40
0.5
 50
0
 51
90
  0
LINE
  5
0
  8
Slice
 10
-131.500000500023
 20
169.499985499928
 30
0
 11
-131.500000500023
 21
162.499985499928
 31
0
  0
ARC
  5
0
  8
Slice
 10
-132.000000500023
 20
162.499985499928
 30
0
 40
0.5
 50
-90
 51
0
  0
LINE
  5
0
  8
Slice
 10
-132.000000500023
 20
161.999985499928
 30
0
 11
-135.000000500023
 21
161.999985499928
 31
0
  0
ARC
  5
0
  8
Slice
 10
-135.000000500023
 20
161.499985499928
 30
0
 40
0.5
 50
90
 51
180
  0
LINE
  5
0
  8
Slice
 10
-135.500000500023
 20
161.499985499928
 30
0
 11
-135.500000500023
 21
154.499985499928
 31
0
  0
ARC
  5
0
  8
Slice
 10
-135.000000500023
 20
154.499985499928
 30
0
 40
0.5
 50
180
 51
270
  0
LINE
  5
0
  8
Slice
 10
-135.000000500023
 20
153.999985499928
 30
0
 11
-116.000000500023
 21
153.999985499928
 31
0
  0
ARC
  5
0
  8
Slice
 10
-116.000000500023
 20
154.499985499928
 30
0
 40
0.5
 50
-90
 51
0
  0
LINE
  5
0
  8
Slice
 10
-115.500000500023
 20
154.499985499928
 30
0
 11
-115.500000500023
 21
161.499985499928
 31
0
  0
ARC
  5
0
  8
Slice
 10
-116.000000500023
 20
161.499985499928
 30
0
 40
0.5
 50
0
 51
90
  0
LINE
  5
0
  8
Slice
 10
-116.000000500023
 20
161.999985499928
 30
0
 11
-119.000000500023
 21
161.999985499928
 31
0
  0
ARC
  5
0
  8
Slice
 10
-119.000000500023
 20
162.499985499928
 30
0
 40
0.5
 50
180
 51
270
  0
LINE
  5
0
  8
Slice
 10
-119.500000500023
 20
162.499985499928
 30
0
 11
-119.500000500023
 21
169.499985499928
 31
0
  0
ARC
  5
0
  8
Slice
 10
-119.000000500023
 20
169.499985499928
 30
0
 40
0.5
 50
90
 51
180
  0
LINE
  5
0
  8
Slice
 10
-119.000000500023
 20
169.999985499928
 30
0
 11
-104.20710728121
 21
169.999985499928
 31
0
  0
ARC
  5
0
  8
Slice
 10
-104.20710728121
 20
169.499985499928
 30
0
 40
0.499999999999592
 50
44.9999999999965
 51
90
  0
LINE
  5
0
  8
Slice
 10
-103.853553890617
 20
169.853538890521
 30
0
 11
-101.14644710943
 21
167.146432109334
 31
0
  0
ARC
  5
0
  8
Slice
 10
-100.792893718836
 20
167.499985499928
 30
0
 40
0.500000000001039
 50
-134.999999999999
 51
-90
  0
LINE
  5
0
  8
Slice
 10
-100.792893718836
 20
166.999985499928
 30
0
 11
7.8728932188139
 21
166.999985499926
 31
0
  0
ARC
  5
0
  8
Slice
 10
7.87289321881389
 20
166.499985499926
 30
0
 40
0.499999999999778
 50
44.9999999999798
 51
89.9999999999988
  0
LINE
  5
0
  8
Slice
 10
8.22644660940713
 20
166.853538890519
 30
0
 11
9.7264466094071
 21
165.353538890519
 31
0
  0
ARC
  5
0
  8
Slice
 10
10.0800000000004
 20
165.707092281112
 30
0
 40
0.499999999999821
 50
-135.000000000025
 51
-44.9999999999751
  0
LINE
  5
0
  8
Slice
 10
10.4335533905937
 20
165.353538890519
 30
0
 11
11.9335533905937
 21
166.853538890519
 31
0
  0
ARC
  5
0
  8
Slice
 10
12.287106781187
 20
166.499985499926
 30
0
 40
0.5
 50
90
 51
135.000000000025
  0
LINE
  5
0
  8
Slice
 10
12.287106781187
 20
166.999985499926
 30
0
 11
100.792893718836
 21
166.999985499924
 31
0
  0
ARC
  5
0
  8
Slice
 10
100.792893718836
 20
167.499985499924
 30
0
 40
0.5
 50
-90
 51
-44.9999999999206
  0
LINE
  5
0
  8
Slice
 10
101.14644710943
 20
167.146432109331
 30
0
 11
103.85355389062
 21
169.853538890521
 31
0
  0
ARC
  5
0
  8
Slice
 10
104.207107281213
 20
169.499985499928
 30
0
 40
0.5
 50
90
 51
135.000000000003
  0
LINE
  5
0
  8
Slice
 10
104.207107281213
 20
169.999985499928
 30
0
 11
119.000000500023
 21
169.999985499928
 31
0
  0
ARC
  5
0
  8
Slice
 10
119.000000500023
 20
169.499985499928
 30
0
 40
0.5
 50
0
 51
90
  0
LINE
  5
0
  8
Slice
 10
119.500000500023
 20
169.499985499928
 30
0
 11
119.500000500023
 21
162.499985499928
 31
0
  0
ARC
  5
0
  8
Slice
 10
119.000000500023
 20
162.499985499928
 30
0
 40
0.5
 50
-90
 51
0
  0
LINE
  5
0
  8
Slice
 10
119.000000500023
 20
161.999985499928
 30
0
 11
116.000000500023
 21
161.999985499928
 31
0
  0
ARC
  5
0
  8
Slice
 10
116.000000500023
 20
161.499985499928
 30
0
 40
0.5
 50
90
 51
180
  0
LINE
  5
0
  8
Slice
 10
115.500000500023
 20
161.499985499928
 30
0
 11
115.500000500023
 21
154.499985499928
 31
0
  0
ARC
  5
0
  8
Slice
 10
116.000000500023
 20
154.499985499928
 30
0
 40
0.5
 50
180
 51
270
  0
LINE
  5
0
  8
Slice
 10
116.000000500023
 20
153.999985499928
 30
0
 11
135.000000500023
 21
153.999985499928
 31
0
  0
ARC
  5
0
  8
Slice
 10
135.000000500023
 20
154.499985499928
 30
0
 40
0.5
 50
-90
 51
0
  0
LINE
  5
0
  8
Slice
 10
135.500000500023
 20
154.499985499928
 30
0
 11
135.500000500023
 21
161.499985499928
 31
0
  0
ARC
  5
0
  8
Slice
 10
135.000000500023
 20
161.499985499928
 30
0
 40
0.5
 50
0
 51
90
  0
LINE
  5
0
  8
Slice
 10
135.000000500023
 20
161.999985499928
 30
0
 11
132.000000500023
 21
161.999985499928
 31
0
  0
ARC
  5
0
  8
Slice
 10
132.000000500023
 20
162.499985499928
 30
0
 40
0.5
 50
180
 51
270
  0
LINE
  5
0
  8
Slice
 10
131.500000500023
 20
162.499985499928
 30
0
 11
131.500000500023
 21
169.499985499928
 31
0
  0
ARC
  5
0
  8
Slice
 10
132.000000500023
 20
169.499985499928
 30
0
 40
0.5
 50
90
 51
180
  0
LINE
  5
0
  8
Slice
 10
132.000000500023
 20
169.999985499928
 30
0
 11
146.792893419968
 21
169.999985499928
 31
0
  0
ARC
  5
0
  8
Slice
 10
146.792893419968
 20
169.499985499928
 30
0
 40
0.499999999999602
 50
44.9999994154608
 51
90
  0
LINE
  5
0
  8
Slice
 10
147.146446814168
 20
169.853538886914
 30
0
 11
149.853553894223
 21
167.14643175162
 31
0
  0
ARC
  5
0
  8
Slice
 10
150.207107288424
 20
167.499985138606
 30
0
 40
0.500000000000326
 50
-135.000000584622
 51
-90.0000011691805
  0
LINE
  5
0
  8
Slice
 10
150.207107278221
 20
166.999985138606
 30
0
 11
156.999999499984
 21
166.999984999995
 31
0
  0
ARC
  5
0
  8
Slice
 10
156.999999499984
 20
151.999984999986
 30
0
 40
15.000000000009
 50
-3.90826559258002e-12
 51
90
  0
LINE
  5
0
  8
Slice
 10
171.999999499993
 20
151.999984999985
 30
0
 11
172.000000500015
 21
18.0199839999734
 31
0
  0
ARC
  5
0
  8
Slice
 10
175.000000500015
 20
18.0199839999734
 30
0
 40
3
 50
180
 51
351.786789298261
  0
ARC
  5
0
  8
Slice
 10
178.464102115153
 20
17.5199839999734
 30
0
 40
0.5
 50
90
 51
171.786789298269
  0
LINE
  5
0
  8
Slice
 10
178.464102115153
 20
18.0199839999734
 30
0
 11
180.500000500082
 21
18.0199839999734
 31
0
  0
ARC
  5
0
  8
Slice
 10
180.500000500082
 20
17.5199839999734
 30
0
 40
0.5
 50
0
 51
90
  0
LINE
  5
0
  8
Slice
 10
181.000000500082
 20
17.5199839999734
 30
0
 11
181.000000500082
 21
0.499999500069244
 31
0
  0
ARC
  5
0
  8
Slice
 10
180.500000500082
 20
0.499999500069237
 30
0
 40
0.5
 50
-90
 51
8.07860889091733e-13
  0
LINE
  5
0
  8
Slice
 10
180.500000500082
 20
-4.99930763453449e-07
 30
0
 11
145.500000500052
 21
-4.99930763453449e-07
 31
0
  0
ARC
  5
0
  8
Slice
 10
145.500000500052
 20
0.499999500069237
 30
0
 40
0.5
 50
179.999999999999
 51
270
  0
LINE
  5
0
  8
Slice
 10
145.000000500052
 20
0.499999500069244
 30
0
 11
145.000000500052
 21
4.74999950005087
 31
0
  0
ARC
  5
0
  8
Slice
 10
144.500000500052
 20
4.74999950005087
 30
0
 40
0.5
 50
0
 51
90
  0
LINE
  5
0
  8
Slice
 10
144.500000500052
 20
5.24999950005086
 30
0
 11
135.500000500055
 21
5.24999950004941
 31
0
  0
ARC
  5
0
  8
Slice
 10
135.500000500055
 20
4.74999950004942
 30
0
 40
0.49999999999999
 50
90
 51
180.000000000011
  0
LINE
  5
0
  8
Slice
 10
135.000000500055
 20
4.74999950004932
 30
0
 11
135.000000500056
 21
0.500000000010754
 31
0
  0
ARC
  5
0
  8
Slice
 10
134.500000500056
 20
0.500000000010658
 30
0
 40
0.5
 50
-90
 51
1.09919969791379e-11
  0
LINE
  5
0
  8
Slice
 10
134.500000500056
 20
1.06581410364015e-11
 30
0
 11
108.5
 21
1.06581410364015e-11
 31
0
  0
ARC
  5
0
  8
Slice
 10
108.5
 20
0.500000000010656
 30
0
 40
0.5
 50
-179.999999999999
 51
-90
  0
LINE
  5
0
  8
Slice
 10
108
 20
0.500000000010647
 30
0
 11
107.999999999998
 21
95.0199854999914
 31
0
  0
ARC
  5
0
  8
Slice
 10
104
 20
95.0199854999914
 30
0
 40
3.999999999998
 50
0
 51
90
  0
LINE
  5
0
  8
Slice
 10
104
 20
99.0199854999894
 30
0
 11
60.4999999999977
 21
99.0199854999891
 31
0
  0
ARC
  5
0
  8
Slice
 10
60.4999999999977
 20
95.0199854999914
 30
0
 40
3.9999999999977
 50
90
 51
180
  0
LINE
  5
0
  8
Slice
 10
56.5
 20
95.0199854999914
 30
0
 11
56.5000000000017
 21
40.2034539999503
 31
0
  0
LINE
  5
0
  8
Slice
 10
30.1568744172214
 20
16.4
 30
0
 11
30.0568744172214
 21
16.5
 31
0
  0
LINE
  5
0
  8
Slice
 10
56.5000000000017
 20
40.2034539999503
 30
0
 11
49.9331681390952
 21
17.3610732434384
 31
0
  0
LINE
  5
0
  8
Slice
 10
-30.1568744172214
 20
16.4
 30
0
 11
-30.0568744172214
 21
16.5
 31
0
  0
LINE
  5
0
  8
Slice
 10
-30.0568744172214
 20
16.5
 30
0
 11
30.0568744172214
 21
16.5
 31
0
  0
LINE
  5
0
  8
Slice
 10
-48.6568744172214
 20
16.4
 30
0
 11
-30.1568744172214
 21
16.4
 31
0
  0
LINE
  5
0
  8
Slice
 10
-56.5
 20
40.534360420008
 30
0
 11
-56.5
 21
95.0199854999913
 31
0
  0
ARC
  5
0
  8
Slice
 10
-60.4999999999977
 20
95.0199854999913
 30
0
 40
3.9999999999977
 50
0
 51
90
  0
LINE
  5
0
  8
Slice
 10
-60.4999999999977
 20
99.019985499989
 30
0
 11
-104
 21
99.0199854999891
 31
0
  0
ARC
  5
0
  8
Slice
 10
-104
 20
95.0199854999913
 30
0
 40
3.9999999999978
 50
90
 51
180
  0
LINE
  5
0
  8
Slice
 10
-107.999999999998
 20
95.0199854999913
 30
0
 11
-107.999999999997
 21
0.499999999989065
 31
0
  0
ARC
  5
0
  8
Slice
 10
-108.499999999997
 20
0.499999999989056
 30
0
 40
0.499999999999998
 50
-90
 51
1.03049971679418e-12
  0
LINE
  5
0
  8
Slice
 10
-108.499999999997
 20
-1.09423581307055e-11
 30
0
 11
-134.500000500024
 21
-1.09423581307055e-11
 31
0
  0
ARC
  5
0
  8
Slice
 10
-134.500000500024
 20
0.499999999989058
 30
0
 40
0.5
 50
179.999999999999
 51
270
  0
LINE
  5
0
  8
Slice
 10
-135.000000500024
 20
0.499999999989065
 30
0
 11
-135.000000500024
 21
4.74999997498724
 31
0
  0
ARC
  5
0
  8
Slice
 10
-135.500000500024
 20
4.74999997498724
 30
0
 40
0.5
 50
0
 51
90.000002865016
  0
LINE
  5
0
  8
Slice
 10
-135.500000525026
 20
5.24999997498726
 30
0
 11
-144.500000525026
 21
5.24999952495454
 31
0
  0
ARC
  5
0
  8
Slice
 10
-144.500000500024
 20
4.74999952495453
 30
0
 40
0.500000000000011
 50
90.0000028650192
 51
180.000000000011
  0
LINE
  5
0
  8
Slice
 10
-145.000000500024
 20
4.74999952495443
 30
0
 11
-145.000000500023
 21
0.499999499952803
 31
0
  0
ARC
  5
0
  8
Slice
 10
-145.500000500023
 20
0.499999499952707
 30
0
 40
0.5
 50
-90
 51
1.09983580885008e-11
  0
LINE
  5
0
  8
Slice
 10
-145.500000500023
 20
-5.00047292462114e-07
 30
0
 11
-180.500000500026
 21
-5.00047292462114e-07
 31
0
  0
ARC
  5
0
  8
Slice
 10
-180.500000500026
 20
0.499999499952707
 30
0
 40
0.5
 50
179.999999999999
 51
270
  0
ARC
  5
0
  8
Slice
 10
-140.000000500023
 20
37.0000004999226
 30
0
 40
6.50049999999999
 50
180
 51
360
  0
ARC
  5
0
  8
Slice
 10
-140.000000500023
 20
37.0000004999226
 30
0
 40
6.50050000000005
 50
0
 51
180
  0
ARC
  5
0
  8
Slice
 10
96.0000000000029
 20
146.000000499918
 30
0
 40
6.5005000000001
 50
180
 51
360
  0
ARC
  5
0
  8
Slice
 10
96.0000000000029
 20
146.000000499918
 30
0
 40
6.5005000000001
 50
0
 51
180
  0
ARC
  5
0
  8
Slice
 10
-95.9999999999972
 20
146.000000499922
 30
0
 40
6.5004999999998
 50
180
 51
360
  0
ARC
  5
0
  8
Slice
 10
-95.9999999999972
 20
146.000000499922
 30
0
 40
6.5004999999998
 50
0
 51
180
  0
ARC
  5
0
  8
Slice
 10
140.000000500025
 20
37.0000004999171
 30
0
 40
6.50050000000002
 50
180
 51
360
  0
ARC
  5
0
  8
Slice
 10
140.000000500025
 20
37.0000004999171
 30
0
 40
6.50049999999999
 50
0
 51
180
  0
ARC
  5
0
  8
Slice
 10
1.19015908239817e-12
 20
60.0000004999198
 30
0
 40
6.5005
 50
180
 51
360
  0
ARC
  5
0
  8
Slice
 10
1.19015908239817e-12
 20
60.0000004999198
 30
0
 40
6.5005
 50
0
 51
180
  0
ARC
  5
0
  8
Slice
 10
2.36255459640233e-12
 20
120.00000049992
 30
0
 40
6.5005
 50
180
 51
360
  0
ARC
  5
0
  8
Slice
 10
2.36255459640233e-12
 20
120.00000049992
 30
0
 40
6.50050000000001
 50
0
 51
180
  0
ARC
  5
0
  8
Slice
 10
-48.6568744172214
 20
17.7229641191665
 30
0
 40
1.32296411916646
 50
-164.169693775625
 51
-90
  0
ARC
  5
0
  8
Slice
 10
48.6568744172214
 20
17.727987986959
 30
0
 40
1.32798798695897
 50
-89.9999999999997
 51
-16.0391263797373
  0
LINE
  5
0
  8
Slice
 10
-49.9296635850051
 20
17.3620738380914
 30
0
 11
-56.5
 21
40.534360420008
 31
0
  0
LINE
  5
0
  8
Slice
 10
48.6568744172214
 20
16.4
 30
0
 11
30.1568744172214
 21
16.4
 31
0
  0
ENDSEC
  0
EOF
