  0
SECTION
  2
HEADER
  9
$INSBASE
 10
0.0000
 20
0.0000
  9
$EXTMIN
 10
-535.355339
 20
-535.355339
  9
$EXTMAX
 10
535.355339
 20
535.355339
  9
$LIMMIN
 10
-535.355339
 20
-535.355339
  9
$LIMMAX
 10
535.355339
 20
535.355339
  9
$TEXTSTYLE
  7
STANDARD
  9
$CLAYER
  8
default
  0
ENDSEC
  0
SECTION
  2
TABLES
  0
TABLE
  2
LTYPE
 70
4948253
  0
LTYPE
  2
CONTINUOUS
 70
    64
  3
Solid line
 72
    65
 73
     0
 40
0.0
  0
ENDTAB
  0
TABLE
  2
LAYER
 70
     5
  0
LAYER
  2
default
 70
    64
 62
     7
  6
CONTINUOUS
  0
ENDTAB
  0
TABLE
  2
STYLE
 70
     1
  0
STYLE
  2
STANDARD
 70
     0
 40
0.0
 41
1.0
 50
0.0
 71
     0
 42
0.2
  3
txt
  4

  0
ENDTAB
  0
TABLE
  2
VIEW
 70
     0
  0
ENDTAB
  0
ENDSEC
  0
SECTION
  2
BLOCKS
  0
ENDSEC
  0
SECTION
  2
ENTITIES
  0
LINE
  8
default
 10
60.000000
 20
45.600000
 30
0.0
 11
60.000000
 21
94.400000
 31
0.0
  0
LINE
  8
default
 10
178.464102
 20
18.019984
 30
0.0
 11
180.500001
 21
18.019984
 31
0.0
  0
LINE
  8
default
 10
171.999999
 20
151.999985
 30
0.0
 11
172.000001
 21
18.019984
 31
0.0
  0
LINE
  8
default
 10
-172.000001
 20
18.019984
 30
0.0
 11
-172.000001
 21
151.999985
 31
0.0
  0
LINE
  8
default
 10
-62.600000
 20
43.000000
 30
0.0
 11
-98.400000
 21
43.000000
 31
0.0
  0
LINE
  8
default
 10
-60.500000
 20
99.019985
 30
0.0
 11
-104.000000
 21
99.019985
 31
0.0
  0
LINE
  8
default
 10
-56.500000
 20
40.534360
 30
0.0
 11
-56.500000
 21
95.019985
 31
0.0
  0
LINE
  8
default
 10
101.000000
 20
94.400000
 30
0.0
 11
101.000000
 21
45.600000
 31
0.0
  0
LINE
  8
default
 10
98.400000
 20
43.000000
 30
0.0
 11
62.600000
 21
43.000000
 31
0.0
  0
LINE
  8
default
 10
500.000000
 20
500.000000
 30
0.0
 11
500.000000
 21
0.000000
 31
0.0
  0
LINE
  8
default
 10
-500.000000
 20
500.000000
 30
0.0
 11
500.000000
 21
500.000000
 31
0.0
  0
LINE
  8
default
 10
56.500000
 20
95.019985
 30
0.0
 11
56.500000
 21
40.534360
 31
0.0
  0
LINE
  8
default
 10
104.000000
 20
99.019985
 30
0.0
 11
60.500000
 21
99.019985
 31
0.0
  0
LINE
  8
default
 10
108.000000
 20
0.500000
 30
0.0
 11
108.000000
 21
95.019985
 31
0.0
  0
LINE
  8
default
 10
-500.000000
 20
0.000000
 30
0.0
 11
-500.000000
 21
500.000000
 31
0.0
  0
LINE
  8
default
 10
181.000001
 20
17.519984
 30
0.0
 11
181.000001
 21
0.500000
 31
0.0
  0
LINE
  8
default
 10
-180.500001
 20
18.019984
 30
0.0
 11
-178.464102
 21
18.019984
 31
0.0
  0
LINE
  8
default
 10
-181.000001
 20
0.499999
 30
0.0
 11
-181.000001
 21
17.519984
 31
0.0
  0
LINE
  8
default
 10
-60.000000
 20
94.400000
 30
0.0
 11
-60.000000
 21
45.600000
 31
0.0
  0
LINE
  8
default
 10
-101.000000
 20
45.600000
 30
0.0
 11
-101.000000
 21
94.400000
 31
0.0
  0
LINE
  8
default
 10
-98.400000
 20
97.000000
 30
0.0
 11
-62.600000
 21
97.000000
 31
0.0
  0
LINE
  8
default
 10
-180.500001
 20
-0.000001
 30
0.0
 11
-181.000001
 21
-0.000000
 31
0.0
  0
LINE
  8
default
 10
-108.000000
 20
95.019985
 30
0.0
 11
-108.000000
 21
0.500000
 31
0.0
  0
LINE
  8
default
 10
62.600000
 20
97.000000
 30
0.0
 11
98.400000
 21
97.000000
 31
0.0
  0
LINE
  8
default
 10
-156.999999
 20
166.999985
 30
0.0
 11
156.999999
 21
166.999985
 31
0.0
  0
LINE
  8
default
 10
-181.000001
 20
0.499999
 30
0.0
 11
-181.000001
 21
-0.000000
 31
0.0
  0
LINE
  8
default
 10
-108.000000
 20
0.500000
 30
0.0
 11
-108.000000
 21
-0.000000
 31
0.0
  0
LINE
  8
default
 10
108.000000
 20
0.500000
 30
0.0
 11
108.000000
 21
0.000000
 31
0.0
  0
LINE
  8
default
 10
181.000001
 20
-0.000000
 30
0.0
 11
180.500001
 21
-0.000000
 31
0.0
  0
LINE
  8
default
 10
181.000001
 20
0.500000
 30
0.0
 11
181.000001
 21
-0.000000
 31
0.0
  0
LINE
  8
default
 10
60.000000
 20
-45.600000
 30
0.0
 11
60.000000
 21
-94.400000
 31
0.0
  0
LINE
  8
default
 10
178.464102
 20
-18.019984
 30
0.0
 11
180.500001
 21
-18.019984
 31
0.0
  0
LINE
  8
default
 10
171.999999
 20
-151.999985
 30
0.0
 11
172.000001
 21
-18.019984
 31
0.0
  0
LINE
  8
default
 10
-172.000001
 20
-18.019984
 30
0.0
 11
-172.000001
 21
-151.999985
 31
0.0
  0
LINE
  8
default
 10
-62.600000
 20
-43.000000
 30
0.0
 11
-98.400000
 21
-43.000000
 31
0.0
  0
LINE
  8
default
 10
-60.500000
 20
-99.019985
 30
0.0
 11
-104.000000
 21
-99.019985
 31
0.0
  0
LINE
  8
default
 10
101.000000
 20
-94.400000
 30
0.0
 11
101.000000
 21
-45.600000
 31
0.0
  0
LINE
  8
default
 10
98.400000
 20
-43.000000
 30
0.0
 11
62.600000
 21
-43.000000
 31
0.0
  0
LINE
  8
default
 10
104.000000
 20
-99.019985
 30
0.0
 11
60.500000
 21
-99.019985
 31
0.0
  0
LINE
  8
default
 10
108.000000
 20
-0.500000
 30
0.0
 11
108.000000
 21
-95.019985
 31
0.0
  0
LINE
  8
default
 10
181.000001
 20
-17.519984
 30
0.0
 11
181.000001
 21
-0.500000
 31
0.0
  0
LINE
  8
default
 10
-180.500001
 20
-18.019984
 30
0.0
 11
-178.464102
 21
-18.019984
 31
0.0
  0
LINE
  8
default
 10
-181.000001
 20
-0.499999
 30
0.0
 11
-181.000001
 21
-17.519984
 31
0.0
  0
LINE
  8
default
 10
-60.000000
 20
-94.400000
 30
0.0
 11
-60.000000
 21
-45.600000
 31
0.0
  0
LINE
  8
default
 10
-101.000000
 20
-45.600000
 30
0.0
 11
-101.000000
 21
-94.400000
 31
0.0
  0
LINE
  8
default
 10
-98.400000
 20
-97.000000
 30
0.0
 11
-62.600000
 21
-97.000000
 31
0.0
  0
LINE
  8
default
 10
-108.000000
 20
-95.019985
 30
0.0
 11
-108.000000
 21
-0.500000
 31
0.0
  0
LINE
  8
default
 10
62.600000
 20
-97.000000
 30
0.0
 11
98.400000
 21
-97.000000
 31
0.0
  0
LINE
  8
default
 10
-156.999999
 20
-166.999985
 30
0.0
 11
156.999999
 21
-166.999985
 31
0.0
  0
LINE
  8
default
 10
-181.000001
 20
-0.499999
 30
0.0
 11
-181.000001
 21
-0.000000
 31
0.0
  0
LINE
  8
default
 10
-108.000000
 20
-0.500000
 30
0.0
 11
-108.000000
 21
-0.000000
 31
0.0
  0
LINE
  8
default
 10
108.000000
 20
-0.500000
 30
0.0
 11
108.000000
 21
0.000000
 31
0.0
  0
LINE
  8
default
 10
181.000001
 20
-0.500000
 30
0.0
 11
181.000001
 21
-0.000000
 31
0.0
  0
LINE
  8
default
 10
-500.000000
 20
-500.000000
 30
0.0
 11
500.000000
 21
-500.000000
 31
0.0
  0
LINE
  8
default
 10
-500.000000
 20
0.000000
 30
0.0
 11
-500.000000
 21
-500.000000
 31
0.0
  0
LINE
  8
default
 10
500.000000
 20
-500.000000
 30
0.0
 11
500.000000
 21
0.000000
 31
0.0
  0
LINE
  8
default
 10
-56.500000
 20
40.534360
 30
0.0
 11
-50.120999
 21
16.583070
 31
0.0
  0
LINE
  8
default
 10
-56.500000
 20
-40.534360
 30
0.0
 11
-56.500000
 21
-95.019985
 31
0.0
  0
LINE
  8
default
 10
56.500000
 20
-95.019985
 30
0.0
 11
56.500000
 21
-40.534360
 31
0.0
  0
LINE
  8
default
 10
-30.210000
 20
16.400000
 30
0.0
 11
-45.810000
 21
16.400000
 31
0.0
  0
LINE
  8
default
 10
-30.210000
 20
16.400000
 30
0.0
 11
-30.100000
 21
16.500000
 31
0.0
  0
LINE
  8
default
 10
30.210000
 20
16.400000
 30
0.0
 11
30.100000
 21
16.500000
 31
0.0
  0
LINE
  8
default
 10
-30.100000
 20
16.500000
 30
0.0
 11
30.100000
 21
16.500000
 31
0.0
  0
LINE
  8
default
 10
-50.000000
 20
0.000000
 30
0.0
 11
50.000000
 21
0.000000
 31
0.0
  0
LINE
  8
default
 10
-50.018162
 20
16.400000
 30
0.0
 11
-50.120999
 21
16.583070
 31
0.0
  0
LINE
  8
default
 10
-45.810000
 20
16.400000
 30
0.0
 11
-50.018162
 21
16.400000
 31
0.0
  0
LINE
  8
default
 10
56.500000
 20
40.534360
 30
0.0
 11
50.120999
 21
16.583070
 31
0.0
  0
LINE
  8
default
 10
30.210000
 20
16.400000
 30
0.0
 11
45.810000
 21
16.400000
 31
0.0
  0
LINE
  8
default
 10
50.018162
 20
16.400000
 30
0.0
 11
50.120999
 21
16.583070
 31
0.0
  0
LINE
  8
default
 10
45.810000
 20
16.400000
 30
0.0
 11
50.018162
 21
16.400000
 31
0.0
  0
LINE
  8
default
 10
-56.500000
 20
-40.534360
 30
0.0
 11
-50.120999
 21
-16.583070
 31
0.0
  0
LINE
  8
default
 10
-30.210000
 20
-16.400000
 30
0.0
 11
-45.810000
 21
-16.400000
 31
0.0
  0
LINE
  8
default
 10
-30.210000
 20
-16.400000
 30
0.0
 11
-30.100000
 21
-16.500000
 31
0.0
  0
LINE
  8
default
 10
30.210000
 20
-16.400000
 30
0.0
 11
30.100000
 21
-16.500000
 31
0.0
  0
LINE
  8
default
 10
-30.100000
 20
-16.500000
 30
0.0
 11
30.100000
 21
-16.500000
 31
0.0
  0
LINE
  8
default
 10
-50.018162
 20
-16.400000
 30
0.0
 11
-50.120999
 21
-16.583070
 31
0.0
  0
LINE
  8
default
 10
-45.810000
 20
-16.400000
 30
0.0
 11
-50.018162
 21
-16.400000
 31
0.0
  0
LINE
  8
default
 10
56.500000
 20
-40.534360
 30
0.0
 11
50.120999
 21
-16.583070
 31
0.0
  0
LINE
  8
default
 10
30.210000
 20
-16.400000
 30
0.0
 11
45.810000
 21
-16.400000
 31
0.0
  0
LINE
  8
default
 10
50.018162
 20
-16.400000
 30
0.0
 11
50.120999
 21
-16.583070
 31
0.0
  0
LINE
  8
default
 10
45.810000
 20
-16.400000
 30
0.0
 11
50.018162
 21
-16.400000
 31
0.0
  0
ARC
  8
default
 10
62.600000
 20
94.400000
 30
0.000000
 40
2.600000
 50
90.000000
 51
180.000000
  0
ARC
  8
default
 10
180.500001
 20
17.519984
 30
0.000000
 40
0.500000
 50
0.000000
 51
90.000000
  0
ARC
  8
default
 10
175.000001
 20
18.019984
 30
0.000000
 40
3.000000
 50
180.000000
 51
351.786789
  0
ARC
  8
default
 10
156.999999
 20
151.999985
 30
0.000000
 40
15.000000
 50
360.000000
 51
90.000000
  0
ARC
  8
default
 10
178.464102
 20
17.519984
 30
0.000000
 40
0.500000
 50
90.000000
 51
171.786789
  0
ARC
  8
default
 10
-175.000001
 20
18.019984
 30
0.000000
 40
3.000000
 50
188.213211
 51
0.000000
  0
ARC
  8
default
 10
-98.400000
 20
45.600000
 30
0.000000
 40
2.600000
 50
180.000000
 51
270.000000
  0
ARC
  8
default
 10
-104.000000
 20
95.019985
 30
0.000000
 40
4.000000
 50
90.000000
 51
180.000000
  0
ARC
  8
default
 10
-62.600000
 20
45.600000
 30
0.000000
 40
2.600000
 50
270.000000
 51
360.000000
  0
ARC
  8
default
 10
-60.500000
 20
95.019985
 30
0.000000
 40
4.000000
 50
0.000000
 51
90.000000
  0
ARC
  8
default
 10
62.600000
 20
45.600000
 30
0.000000
 40
2.600000
 50
180.000000
 51
270.000000
  0
ARC
  8
default
 10
98.400000
 20
45.600000
 30
0.000000
 40
2.600000
 50
270.000000
 51
0.000000
  0
ARC
  8
default
 10
60.500000
 20
95.019985
 30
0.000000
 40
4.000000
 50
90.000000
 51
180.000000
  0
ARC
  8
default
 10
104.000000
 20
95.019985
 30
0.000000
 40
4.000000
 50
0.000000
 51
90.000000
  0
ARC
  8
default
 10
0.000000
 20
60.000000
 30
0.000000
 40
6.500500
 50
180.000000
 51
0.000000
  0
ARC
  8
default
 10
0.000000
 20
60.000000
 30
0.000000
 40
6.500500
 50
0.000000
 51
180.000000
  0
ARC
  8
default
 10
96.000000
 20
146.000000
 30
0.000000
 40
6.500500
 50
180.000000
 51
0.000000
  0
ARC
  8
default
 10
96.000000
 20
146.000000
 30
0.000000
 40
6.500500
 50
0.000000
 51
180.000000
  0
ARC
  8
default
 10
140.000001
 20
37.000000
 30
0.000000
 40
6.500500
 50
0.000000
 51
180.000000
  0
ARC
  8
default
 10
0.000000
 20
120.000000
 30
0.000000
 40
6.500500
 50
180.000000
 51
0.000000
  0
ARC
  8
default
 10
0.000000
 20
120.000000
 30
0.000000
 40
6.500500
 50
0.000000
 51
180.000000
  0
ARC
  8
default
 10
-178.464102
 20
17.519984
 30
0.000000
 40
0.500000
 50
8.213211
 51
90.000000
  0
ARC
  8
default
 10
-140.000001
 20
37.000000
 30
0.000000
 40
6.500500
 50
180.000000
 51
0.000000
  0
ARC
  8
default
 10
-140.000001
 20
37.000000
 30
0.000000
 40
6.500500
 50
0.000000
 51
180.000000
  0
ARC
  8
default
 10
140.000001
 20
37.000000
 30
0.000000
 40
6.500500
 50
180.000000
 51
0.000000
  0
ARC
  8
default
 10
-96.000000
 20
146.000000
 30
0.000000
 40
6.500500
 50
180.000000
 51
0.000000
  0
ARC
  8
default
 10
-96.000000
 20
146.000000
 30
0.000000
 40
6.500500
 50
0.000000
 51
180.000000
  0
ARC
  8
default
 10
-180.500001
 20
17.519984
 30
0.000000
 40
0.500000
 50
90.000000
 51
180.000000
  0
ARC
  8
default
 10
-62.600000
 20
94.400000
 30
0.000000
 40
2.600000
 50
0.000000
 51
90.000000
  0
ARC
  8
default
 10
-98.400000
 20
94.400000
 30
0.000000
 40
2.600000
 50
90.000000
 51
180.000000
  0
ARC
  8
default
 10
98.400000
 20
94.400000
 30
0.000000
 40
2.600000
 50
360.000000
 51
90.000000
  0
ARC
  8
default
 10
-157.000000
 20
151.999984
 30
0.000000
 40
15.000001
 50
89.999998
 51
179.999998
  0
ARC
  8
default
 10
62.600000
 20
-94.400000
 30
0.000000
 40
2.600000
 50
180.000000
 51
270.000000
  0
ARC
  8
default
 10
180.500001
 20
-17.519984
 30
0.000000
 40
0.500000
 50
270.000000
 51
0.000000
  0
ARC
  8
default
 10
175.000001
 20
-18.019984
 30
0.000000
 40
3.000000
 50
8.213211
 51
180.000000
  0
ARC
  8
default
 10
156.999999
 20
-151.999985
 30
0.000000
 40
15.000000
 50
270.000000
 51
0.000000
  0
ARC
  8
default
 10
178.464102
 20
-17.519984
 30
0.000000
 40
0.500000
 50
188.213211
 51
270.000000
  0
ARC
  8
default
 10
-175.000001
 20
-18.019984
 30
0.000000
 40
3.000000
 50
360.000000
 51
171.786789
  0
ARC
  8
default
 10
-98.400000
 20
-45.600000
 30
0.000000
 40
2.600000
 50
90.000000
 51
180.000000
  0
ARC
  8
default
 10
-104.000000
 20
-95.019985
 30
0.000000
 40
4.000000
 50
180.000000
 51
270.000000
  0
ARC
  8
default
 10
-62.600000
 20
-45.600000
 30
0.000000
 40
2.600000
 50
0.000000
 51
90.000000
  0
ARC
  8
default
 10
-60.500000
 20
-95.019985
 30
0.000000
 40
4.000000
 50
270.000000
 51
0.000000
  0
ARC
  8
default
 10
62.600000
 20
-45.600000
 30
0.000000
 40
2.600000
 50
90.000000
 51
180.000000
  0
ARC
  8
default
 10
98.400000
 20
-45.600000
 30
0.000000
 40
2.600000
 50
360.000000
 51
90.000000
  0
ARC
  8
default
 10
60.500000
 20
-95.019985
 30
0.000000
 40
4.000000
 50
180.000000
 51
270.000000
  0
ARC
  8
default
 10
104.000000
 20
-95.019985
 30
0.000000
 40
4.000000
 50
270.000000
 51
0.000000
  0
ARC
  8
default
 10
0.000000
 20
-60.000000
 30
0.000000
 40
6.500500
 50
0.000000
 51
180.000000
  0
ARC
  8
default
 10
0.000000
 20
-60.000000
 30
0.000000
 40
6.500500
 50
180.000000
 51
0.000000
  0
ARC
  8
default
 10
96.000000
 20
-146.000000
 30
0.000000
 40
6.500500
 50
0.000000
 51
180.000000
  0
ARC
  8
default
 10
96.000000
 20
-146.000000
 30
0.000000
 40
6.500500
 50
180.000000
 51
0.000000
  0
ARC
  8
default
 10
140.000001
 20
-37.000000
 30
0.000000
 40
6.500500
 50
180.000000
 51
0.000000
  0
ARC
  8
default
 10
0.000000
 20
-120.000000
 30
0.000000
 40
6.500500
 50
0.000000
 51
180.000000
  0
ARC
  8
default
 10
0.000000
 20
-120.000000
 30
0.000000
 40
6.500500
 50
180.000000
 51
0.000000
  0
ARC
  8
default
 10
-178.464102
 20
-17.519984
 30
0.000000
 40
0.500000
 50
270.000000
 51
351.786789
  0
ARC
  8
default
 10
-140.000001
 20
-37.000000
 30
0.000000
 40
6.500500
 50
0.000000
 51
180.000000
  0
ARC
  8
default
 10
-140.000001
 20
-37.000000
 30
0.000000
 40
6.500500
 50
180.000000
 51
0.000000
  0
ARC
  8
default
 10
140.000001
 20
-37.000000
 30
0.000000
 40
6.500500
 50
0.000000
 51
180.000000
  0
ARC
  8
default
 10
-96.000000
 20
-146.000000
 30
0.000000
 40
6.500500
 50
0.000000
 51
180.000000
  0
ARC
  8
default
 10
-96.000000
 20
-146.000000
 30
0.000000
 40
6.500500
 50
180.000000
 51
0.000000
  0
ARC
  8
default
 10
-180.500001
 20
-17.519984
 30
0.000000
 40
0.500000
 50
180.000000
 51
270.000000
  0
ARC
  8
default
 10
-62.600000
 20
-94.400000
 30
0.000000
 40
2.600000
 50
270.000000
 51
360.000000
  0
ARC
  8
default
 10
-98.400000
 20
-94.400000
 30
0.000000
 40
2.600000
 50
180.000000
 51
270.000000
  0
ARC
  8
default
 10
98.400000
 20
-94.400000
 30
0.000000
 40
2.600000
 50
270.000000
 51
0.000000
  0
ARC
  8
default
 10
-157.000000
 20
-151.999984
 30
0.000000
 40
15.000001
 50
180.000002
 51
270.000002
  0
ENDSEC
  0
EOF
